<svg width="41" height="40" viewBox="0 0 41 40" fill="none" xmlns="http://www.w3.org/2000/svg">
<ellipse cx="20.2823" cy="20" rx="20.2823" ry="20" fill="#28387E"/>
<path fill-rule="evenodd" clip-rule="evenodd" d="M27.3032 17.7847C27.3032 14.1225 24.2472 11.1538 20.4774 11.1538C16.7077 11.1538 13.6517 14.1225 13.6517 17.7847C13.6517 22.4369 13.6517 24.5646 13.6517 29.2307L20.8131 29.2307L20.8131 25.9696L17.0086 25.9696L17.0086 25.0372C17.0086 23.1761 18.5616 21.6674 20.4774 21.6674C22.3932 21.6674 23.9463 23.1761 23.9463 25.0372L23.9463 29.2307L27.3032 29.2307C27.3032 24.5646 27.3032 22.4369 27.3032 17.7847ZM17.0086 19.3252C18.0251 18.7414 19.211 18.4063 20.4774 18.4063C21.7439 18.4063 22.9298 18.7414 23.9463 19.3252L23.9463 17.7847C23.9463 15.9236 22.3932 14.4149 20.4774 14.4149C18.5616 14.4149 17.0086 15.9236 17.0086 17.7847L17.0086 19.3252Z" fill="white"/>
</svg>
